<svg xmlns="http://www.w3.org/2000/svg" xmlns:xlink="http://www.w3.org/1999/xlink" xmlns:inkscape="http://www.inkscape.org/namespaces/inkscape" version="1.1" width="240.54" height="147.19" viewBox="0 0 240.54 147.19">
<defs>
<path id="font_1_107" d="M.5049896 .18203736H.47099305C.46798707 .16001892 .45799256 .100997928 .44499208 .09098816 .43699647 .084991458 .3600006 .084991458 .34599305 .084991458H.1619873C.2669983 .17803955 .3019867 .20603943 .3619995 .25306703 .43598939 .312088 .5049896 .374115 .5049896 .46914674 .5049896 .5900879 .39898683 .6640625 .2709961 .6640625 .14698792 .6640625 .06298828 .57710269 .06298828 .4851532 .06298828 .43414308 .10598755 .42915345 .115997318 .42915345 .13999939 .42915345 .16899109 .44615174 .16899109 .48214723 .16899109 .5001526 .1619873 .53515627 .10998535 .53515627 .14099121 .6060791 .20899964 .62805178 .2559967 .62805178 .35598756 .62805178 .4079895 .5501404 .4079895 .46914674 .4079895 .38212586 .34599305 .3130951 .31399537 .27708436L.07299805 .038986207C.06298828 .02999878 .06298828 .027999878 .06298828 0H.47499085L.5049896 .18203736Z"/>
<path id="font_1_121" d="M.5159912 .31925965C.5159912 .42918397 .5029907 .50813296 .45700074 .5780945 .42599488 .62405398 .3639984 .6640625 .28399659 .6640625 .051986696 .6640625 .051986696 .39120484 .051986696 .31925965 .051986696 .2472992 .051986696-.01953125 .28399659-.01953125 .5159912-.01953125 .5159912 .2472992 .5159912 .31925965M.4249878 .33224488C.4249878 .25830079 .4249878 .18434143 .4119873 .12138367 .3919983 .030441285 .32398988 .008468628 .28399659 .008468628 .23799134 .008468628 .1769867 .035446168 .15699768 .117385867 .14299011 .17634583 .14299011 .25830079 .14299011 .33224488 .14299011 .40519715 .14299011 .4811554 .1579895 .53611758 .1789856 .6150665 .24299622 .63604739 .28399659 .63604739 .33799745 .63604739 .3899994 .6030731 .4079895 .545105 .42399598 .4911499 .4249878 .41918946 .4249878 .33224488Z"/>
<path id="font_1_72" d="M.2809906 0V.035995485C.21598816 .035995485 .20599365 .035995485 .20599365 .07901001V.69433596L.055999757 .6826172V.64660647C.12298584 .64660647 .1309967 .6396179 .1309967 .59065249V.07896423C.1309967 .035995485 .12098694 .035995485 .055999757 .035995485V0C.055999757 0 .12799073 .0039978029 .16799927 .0039978029 .20599365 .0039978029 .24299622 .0029907227 .2809906 0Z"/>
<path id="font_1_28" d="M.5439911 .09013367V.14515686H.5099945V.09114075C.5099945 .08113098 .5099945 .033111574 .47299195 .033111574 .43598939 .033111574 .43598939 .0801239 .43598939 .09313965V.268219C.43598939 .3212433 .43598939 .35925294 .3899994 .39627076 .34899903 .4302826 .30099488 .44628907 .24198914 .44628907 .14698792 .44628907 .07998657 .41027833 .07998657 .34925843 .07998657 .31723023 .101989749 .30023194 .12799073 .30023194 .15499878 .30023194 .1749878 .3202362 .1749878 .34724427 .1749878 .3642578 .16699219 .38526917 .13999939 .39326478 .17599488 .41827394 .23399353 .41827394 .23999024 .41827394 .29599 .41827394 .35699464 .38127137 .35699464 .29722596V.2662201C.3019867 .26420594 .23599243 .2612152 .16299439 .23420716 .07299805 .20118714 .04499817 .14616394 .04499817 .101135257 .04499817 .0152282719 .14898682-.009765625 .21998596-.009765625 .2999878-.009765625 .34700013 .035232545 .36799623 .07423401 .37199403 .033111574 .39898683-.0048828127 .44499208-.0048828127 .44499208-.0048828127 .5439911-.0048828127 .5439911 .09010315V.09013367M.35699464 .14111328C.35699464 .04522705 .272995 .018234253 .22799683 .018234253 .1769867 .018234253 .1289978 .052230836 .1289978 .10122681 .1289978 .15621948 .1769867 .23323059 .35699464 .24023438V.14111328Z"/>
<path id="font_1_118" d="M.56799319 .39465333V.43066407C.5399933 .4286499 .5209961 .426651 .49198915 .426651 .46499635 .426651 .42799378 .42765809 .40098573 .43066407V.39465333C.43399049 .39265443 .44198609 .3726654 .44198609 .3566742 .44198609 .3446808 .43699647 .33569337 .43299867 .32569886L.32199098 .08883667 .19898987 .3526764C.19599915 .3586731 .19299317 .3646698 .19299317 .37167359 .19299317 .39465333 .22698975 .39465333 .24398804 .39465333V.43066407L.1289978 .426651C.09899902 .426651 .05999756 .42765809 .0309906 .43066407V.39465333C.08699036 .39465333 .09799194 .3916626 .11299133 .35968019L.2809906-.00012207031C.27198792-.020111084 .2619934-.039093019 .25299073-.05908203 .23098755-.10707092 .19898987-.17610169 .1309967-.17610169 .10598755-.17610169 .09799194-.1710968 .08799744-.1640625 .08799744-.16397095 .116989139-.15396118 .116989139-.12097168 .116989139-.096069339 .09899902-.078063968 .07398987-.078063968 .04798889-.078063968 .02999878-.096069339 .02999878-.12207031 .02999878-.16908264 .07699585-.20410156 .1309967-.20410156 .21598816-.20396424 .2649994-.114974979 .2789917-.08496094L.47299195 .33270265C.5009918 .3936615 .5519867 .39465333 .56799319 .39465333Z"/>
<path id="font_1_50" d="M.46798707 .12036133C.46798707 .12435913 .46598817 .13438416 .45098878 .13438416 .43798829 .13438416 .43598939 .12837219 .43299867 .11836243 .4019928 .037246705 .32598878 .022232056 .2899933 .022232056 .24299622 .022232056 .19799805 .043258668 .16799927 .08131409 .1309967 .12837219 .12998963 .18945313 .12998963 .22851563H.43998719C.46099855 .22851563 .46798707 .22851563 .46798707 .25050355 .46798707 .33839417 .4189911 .44628907 .269989 .44628907 .13899231 .44628907 .038986207 .34239198 .038986207 .21949768 .038986207 .092315677 .1499939-.009765625 .2829895-.009765625 .41799928-.009765625 .46798707 .09832764 .46798707 .12036133M.397995 .25450135H.1309967C.14199829 .39530946 .23199463 .41827394 .269989 .41827394 .3929901 .41827394 .39698792 .27947999 .397995 .25450135Z"/>
<path id="font_1_96" d="M.40699769 .37739564C.40699769 .4113922 .375 .44140626 .32798768 .44140626 .27799989 .44140626 .22299195 .4104004 .19299317 .33439637H.19198609V.44140626L.04899597 .43052674V.39453126C.115997318 .39453126 .12399292 .3875122 .12399292 .33843995V.079055789C.12399292 .035995485 .11399841 .035995485 .04899597 .035995485V0C.053985597 0 .12199402 .0039978029 .16299439 .0039978029L.29299928 0V.035995485H.272995C.19898987 .036071779 .19898987 .047073366 .19898987 .081085208V.22807312C.19898987 .31207276 .23799134 .41308595 .33299256 .41308595 .32398988 .40608216 .31599427 .39308167 .31599427 .3770752 .31599427 .3440857 .34199525 .3310852 .36099244 .3310852 .3849945 .3310852 .40699769 .34707643 .40699769 .3770752V.37739564Z"/>
<path id="font_1_98" d="M.40699769 .1315155C.40699769 .1694336 .3899994 .1993866 .3639984 .2233429 .32598878 .25827027 .27999879 .2662506 .24499512 .2722473 .16499329 .28622438 .099990848 .29818727 .099990848 .35113526 .099990848 .38320924 .1269989 .422287 .22200012 .422287 .33799745 .422287 .34298707 .34114076 .34498597 .3121643 .34599305 .30119325 .35798646 .30119325 .3619995 .30119325 .3789978 .30119325 .3789978 .30818177 .3789978 .32714845V.42027284C.3789978 .43728639 .3789978 .44628907 .36499024 .44628907 .3600006 .44628907 .35798646 .44628907 .34498597 .4342804 .34298707 .43328858 .33299256 .4242859 .32699586 .419281 .29699708 .4402771 .25898744 .44628907 .22200012 .44628907 .07899475 .44628907 .04499817 .3711853 .04499817 .32115174 .04499817 .2892151 .05899048 .2632599 .08299255 .24330139 .12098694 .21035767 .15899658 .20336914 .22099304 .1933899 .2709961 .18440247 .35198976 .17044068 .35198976 .103515628 .35198976 .06437683 .32499696 .018234253 .22898865 .018234253 .1329956 .018234253 .09799194 .08143616 .07998657 .1494751 .07699585 .16244507 .07598877 .16644287 .06199646 .16644287 .04499817 .16644287 .04499817 .15945435 .04499817 .13949585V.016220093C.04499817-.00077819827 .04499817-.009765625 .05899048-.009765625 .067993167-.009765625 .08699036 .011230469 .10699463 .03327942 .15098572-.0077667238 .20498657-.009765625 .22898865-.009765625 .35899354-.009765625 .40699769 .06036377 .40699769 .1315155Z"/>
<path id="font_1_109" d="M.58999636 0V.035995485C.522995 .035995485 .5149994 .042999269 .5149994 .092056278V.44140626L.36099244 .43052674V.39453126C.42799378 .39439393 .43598939 .3874359 .43598939 .33872987V.16749573C.43598939 .079330448 .3789978 .018234253 .30299378 .018234253 .21199036 .018234253 .20799256 .061309816 .20799256 .11239624V.44140626L.053985597 .43052674V.39453126C.1289978 .39453126 .1289978 .39154054 .1289978 .30273438V.15246582C.1289978 .083343509 .1289978-.009765625 .29599-.009765625 .31799317-.009765625 .3909912-.009765625 .43899537 .07432556H.43998719V-.009765625L.58999636 0Z"/>
<path id="font_1_77" d="M.58999636 0V.035995485C.5249939 .035995485 .5149994 .035995485 .5149994 .07904053V.3032837C.5149994 .3903656 .47200013 .44140626 .36499024 .44140626 .2829895 .44140626 .22999573 .39637757 .20199585 .34432984H.20098877V.44140626L.053985597 .43052674V.39453126C.12098694 .39453126 .1289978 .3875122 .1289978 .33843995V.079055789C.1289978 .035995485 .11898804 .035995485 .053985597 .035995485V0C.053985597 0 .12599182 .0039978029 .16799927 .0039978029 .20498657 .0039978029 .27398683 .0009918213 .2829895 0V.035995485C.21798706 .035995485 .20799256 .035995485 .20799256 .079055789V.25932313C.20799256 .36434938 .29100038 .4133911 .35699464 .4133911 .4269867 .4133911 .43598939 .3583374 .43598939 .3072815V.07904053C.43598939 .035995485 .42599488 .035995485 .36099244 .035995485V0C.36099244 0 .43299867 .0039978029 .47499085 .0039978029 .5119934 .0039978029 .58099368 .0009918213 .58999636 0Z"/>
<path id="font_1_63" d="M.58999636 0V.035995485C.5249939 .035995485 .5149994 .035995485 .5149994 .0790863V.3035736C.5149994 .39045716 .47200013 .44140626 .36499024 .44140626 .27598573 .44140626 .22698975 .3884735 .20498657 .35058595H.20399475V.69433596L.053985597 .6826172V.64660647C.12098694 .64660647 .1289978 .6396179 .1289978 .59065249V.07896423C.1289978 .035995485 .11898804 .035995485 .053985597 .035995485V0C.053985597 0 .12599182 .0039978029 .16799927 .0039978029 .20498657 .0039978029 .27398683 .0009918213 .2829895 0V.035995485C.21798706 .035995485 .20799256 .035995485 .20799256 .07904053V.25923158C.20799256 .36434938 .29100038 .4133911 .35699464 .4133911 .4269867 .4133911 .43598939 .3583374 .43598939 .3072815V.07904053C.43598939 .035995485 .42599488 .035995485 .36099244 .035995485V0C.36099244 0 .43299867 .0039978029 .47499085 .0039978029 .5119934 .0039978029 .58099368 .0009918213 .58999636 0Z"/>
<path id="font_1_47" d="M.58099368 0V.035995485C.5139923 .035995485 .5059967 .042999269 .5059967 .09202576V.69433596L.35598756 .6826172V.64660647C.4229889 .64660647 .43099977 .6396332 .43099977 .5908203V.3843689C.3939972 .4203949 .34599305 .44140626 .29100038 .44140626 .1579895 .44140626 .04598999 .34132386 .04598999 .21520996 .04598999 .09008789 .1519928-.009765625 .2789917-.009765625 .36099244-.009765625 .4099884 .03414917 .4269867 .05206299V-.009765625L.58099368 0M.4269867 .10499573C.40098573 .05807495 .34999085 .018234253 .2849884 .018234253 .22898865 .018234253 .18899536 .051071168 .16899109 .080078128 .14898682 .11010742 .13699341 .15014649 .13699341 .21421814 .13699341 .23724365 .13699341 .3123169 .17799378 .35932923 .21798706 .40438844 .2669983 .4133911 .29599 .4133911 .34399415 .4133911 .3869934 .39137269 .4149933 .35533143 .4269867 .33932496 .4269867 .33833314 .4269867 .31933595V.10499573Z"/>
<path id="font_2_1" d="M.19299317 .1382904C.20399475 .18132019 .21499634 .22433472 .22499085 .26835633 .22599793 .27035523 .23298645 .29937745 .23399353 .30438233 .23699951 .313385 .2619934 .35438539 .28799439 .37937928 .31999208 .40838624 .35398866 .4133911 .37199403 .4133911 .3829956 .4133911 .40098573 .4123993 .4149933 .40039063 .37199403 .39138795 .3659973 .35438539 .3659973 .3453827 .3659973 .32337953 .3829956 .30838014 .40499879 .30838014 .43199159 .30838014 .46199037 .3303833 .46199037 .3703766 .46199037 .40638734 .43099977 .44140626 .37399293 .44140626 .30599977 .44140626 .2599945 .39637757 .23899842 .36938478 .21899414 .44140626 .15098572 .44140626 .14099121 .44140626 .10499573 .44140626 .07998657 .418396 .06399536 .38739015 .040985109 .3423767 .02999878 .29136659 .02999878 .28837586 .02999878 .27937318 .036987306 .2753601 .04499817 .2753601 .057998659 .2753601 .05899048 .27937318 .06599426 .30537416 .07798767 .35438539 .09599304 .4133911 .13798523 .4133911 .1639862 .4133911 .16999817 .38838197 .16999817 .36637879 .16999817 .34838868 .16499329 .32937623 .15699768 .29637147 .15499878 .28837586 .13999939 .2293396 .13598633 .21533203L.09899902 .06526184C.09498596 .050247194 .08898926 .025238038 .08898926 .021224976 .08898926-.0017700195 .10798645-.009765625 .12098694-.009765625 .1559906-.009765625 .16299439 .018234253 .17098999 .052246095L.19299317 .1382904Z"/>
<path id="font_3_5" d="M.73098757 .3330078C.74598696 .3330078 .7659912 .3330078 .7659912 .3560028 .7659912 .3789978 .74198916 .3789978 .72698977 .3789978H.09799194C.08299255 .3789978 .05899048 .3789978 .05899048 .3560028 .05899048 .3330078 .07899475 .3330078 .09399414 .3330078H.73098757M.72698977 .12098694C.74198916 .12098694 .7659912 .12098694 .7659912 .14398194 .7659912 .16699219 .74598696 .16699219 .73098757 .16699219H.09399414C.07899475 .16699219 .05899048 .16699219 .05899048 .14398194 .05899048 .12098694 .08299255 .12098694 .09799194 .12098694H.72698977Z"/>
<path id="font_3_1" d="M.31399537 .63708499C.31399537 .664032 .31199647 .66503909 .2849884 .66503909 .24398804 .6251831 .19099427 .6013489 .09599304 .6013489V.5683594C.12298584 .5683594 .1769867 .5683594 .23498535 .5953522V.08203125C.23498535 .04499817 .23199463 .032989503 .13699341 .032989503H.101989749V0C.14299011 .0029907227 .22898865 .0029907227 .27398683 .0029907227 .31900025 .0029907227 .4059906 .0029907227 .44699098 0V.032989503H.4119873C.31698609 .032989503 .31399537 .04499817 .31399537 .08203125V.63708499Z"/>
<path id="font_1_84" d="M.58399966 .21640015C.58399966 .33940126 .48199464 .44140626 .35499574 .44140626 .2979889 .44140626 .23999024 .4203949 .19898987 .3804016V.44140626L.04899597 .43052674V.39453126C.11898804 .39453126 .12399292 .38952638 .12399292 .34753419V-.11437988C.12399292-.15736389 .11399841-.15736389 .04899597-.15736389V-.19335938C.04899597-.19346619 .12098694-.18945313 .16299439-.18945313 .19999695-.18936157 .2689972-.19236756 .27799989-.19335938V-.15736389C.21299744-.15736389 .20298767-.15736389 .20298767-.114486698V.048233034C.20799256 .04324341 .25498963-.009765625 .33898927-.009765625 .47099305-.009765625 .58399966 .089263919 .58399966 .2163086V.21640015M.49299623 .2163086C.49299623 .102264408 .41799928 .018234253 .33299256 .018234253 .24499512 .018234253 .20599365 .09526062 .20298767 .101257327V.33335877C.23298645 .38339234 .29100038 .4093933 .34399415 .4093933 .42799378 .4093933 .49299623 .32136537 .49299623 .2163086Z"/>
<path id="font_4_66" d="M.32598878 0V.04399109C.25898744 .04399109 .25099183 .04399109 .25099183 .08403015V.4423828L.08699036 .43066407V.3866577C.1579895 .3866577 .1659851 .3796692 .1659851 .33070375V.08395386C.1659851 .052978517 .1659851 .04399109 .100997928 .04399109H.08299255V0C.12399292 .0029907227 .1659851 .0039978029 .20698548 .0039978029 .24499512 .0039978029 .2889862 .0029907227 .32598878 0M.2619934 .6000519C.2619934 .63404849 .23498535 .6610565 .20098877 .6610565 .16799927 .6610565 .13999939 .63404849 .13999939 .6000519 .13999939 .5660553 .16699219 .5390625 .20098877 .5390625 .23399353 .5390625 .2619934 .5660553 .2619934 .6000519Z"/>
<path id="font_4_77" d="M.68299868 0V.04399109H.6649933C.59999087 .04399109 .59999087 .052978517 .59999087 .08395386V.3017578C.59999087 .41236878 .5249939 .4423828 .43199159 .4423828 .32499696 .4423828 .2689972 .3832245 .24598694 .34399415V.4423828L.08198547 .43066407V.3866577C.1559906 .3866577 .16499329 .3796692 .16499329 .330719V.08395386C.16499329 .052978517 .16499329 .04399109 .099990848 .04399109H.08198547V0C.125 .0029907227 .16699219 .0039978029 .20999146 .0039978029 .2519989 .0039978029 .29499818 .0029907227 .33699037 0V.04399109H.31900025C.2539978 .04399109 .2539978 .052978517 .2539978 .08395386V.25775147C.2539978 .3713379 .35798646 .40937806 .41999818 .40937806 .49398805 .40937806 .5109863 .36732484 .5109863 .30326844V.08403015C.5109863 .053009035 .5109863 .04399109 .44599916 .04399109H.42799378V0C.47099305 .0029907227 .5130005 .0039978029 .55599978 .0039978029 .59799197 .0039978029 .6409912 .0029907227 .68299868 0Z"/>
<path id="font_4_68" d="M.2939911-.04298401V.4423828L.116989139 .43138124V.38737489C.19898987 .38737489 .20899964 .3803711 .20899964 .33032228V-.04397583C.20899964-.105026248 .18598938-.17208863 .12599182-.17208863 .11299133-.17208863 .08999634-.16908264 .07199097-.16307068 .07699585-.16007996 .09599304-.14605713 .09599304-.11804199 .09599304-.086013797 .07299805-.06500244 .042999269-.06500244 .01399231-.06500244-.010009766-.086013797-.010009766-.11804199-.010009766-.1790924 .056991579-.20507813 .1269989-.20507813 .21099854-.20507813 .2939911-.14605713 .2939911-.04298401M.2939911 .6001282C.2939911 .63412478 .2669983 .6611328 .23298645 .6611328 .19999695 .6611328 .17199707 .63412478 .17199707 .6001282 .17199707 .5661316 .19898987 .53912356 .23298645 .53912356 .2659912 .53912356 .2939911 .5661316 .2939911 .6001282Z"/>
<path id="font_4_50" d="M.5469971 .119155887C.5469971 .13623047 .5309906 .13623047 .526001 .13623047 .5109863 .13623047 .5089874 .1322174 .5029907 .11816406 .47499085 .049209596 .40098573 .025253296 .34498597 .025253296 .2639923 .025253296 .21899414 .07017517 .20399475 .0871582 .16499329 .13522339 .16499329 .19847107 .16499329 .22558594H.5169983C.5379944 .22558594 .5469971 .22558594 .5469971 .24957276 .5469971 .31645204 .5109863 .4482422 .32398988 .4482422 .17199707 .4482422 .06498718 .3390503 .06498718 .21984864 .06498718 .09310913 .18699646-.0107421879 .33898927-.0107421879 .49798585-.0107421879 .5469971 .100097659 .5469971 .11906433V.119155887M.46998597 .25585938H.16699219C.1789856 .38816834 .27598573 .41523744 .32299806 .41523744 .46199037 .41523744 .46899415 .28492738 .46998597 .25585938Z"/>
<path id="font_4_43" d="M.5469971 .12023926C.5469971 .13424683 .5319977 .13424683 .526001 .13424683 .5099945 .13424683 .5089874 .13124085 .5039978 .11924744 .46998597 .036254884 .39698792 .025253296 .35299684 .025253296 .2669983 .025253296 .17199707 .08325195 .17199707 .21723938 .17199707 .26124574 .18099976 .3162384 .21798706 .3582306 .2659912 .41223146 .32499696 .41223146 .35598756 .41223146 .38598634 .41223146 .4139862 .41223146 .44898988 .40322877 .43499757 .39323426 .4269867 .37722779 .4269867 .35923768 .4269867 .3262329 .45199586 .3062439 .47999574 .3062439 .5039978 .3062439 .5329895 .3222351 .5329895 .3602295 .5329895 .4452362 .42199708 .4482422 .35198976 .4482422 .1559906 .4482422 .07199097 .3162384 .07199097 .21624756 .07199097 .09225464 .18899536-.0107421879 .33999635-.0107421879 .5130005-.0107421879 .5469971 .11125183 .5469971 .12023926Z"/>
<path id="font_4_105" d="M.44400025 .12608338V.18099976H.4019928V.1290741C.4019928 .05419922 .35798646 .025253296 .32299806 .025253296 .24598694 .025253296 .24598694 .1051178 .24598694 .12608338V.3866577H.4229889V.43066407H.24598694V.6142578H.20399475C.20298767 .52046206 .15299988 .4226532 .050994874 .41966249V.3866577H.15699768V.12608338C.15699768 .012252808 .25099183-.0107421879 .31298829-.0107421879 .3880005-.011001587 .44400025 .04399109 .44400025 .12599182V.12608338Z"/>
<path id="font_1_51" d="M.5139923 .16905213C.5139923 .23504639 .47499085 .2910614 .4169922 .32505799L.35499574 .36105348C.43299867 .39904786 .48298646 .44606019 .48298646 .5150604 .48298646 .61206057 .38198854 .6640625 .2849884 .6640625 .1749878 .6640625 .084991458 .5920563 .084991458 .49705506 .084991458 .45005799 .10699463 .4160614 .125 .39605714 .14299011 .37506105 .1499939 .37104798 .20899964 .33605958 .15299988 .31245423 .053985597 .25846864 .053985597 .15345764 .053985597 .04246521 .16899109-.01953125 .2829895-.01953125 .4099884-.01953125 .5139923 .061462404 .5139923 .16946411V.16905213M.42999269 .51545718C.42999269 .4264679 .32398988 .38145448 .32398988 .38145448 .32398988 .38145448 .31999208 .38246156 .31298829 .38645936L.19198609 .45646668C.1659851 .4711609 .13798523 .49813844 .13798523 .53512576 .13798523 .5980835 .21099854 .63505557 .2829895 .63505557 .36099244 .63505557 .42999269 .5860901 .42999269 .5151367V.51545718M.45399476 .13438416C.45399476 .059432985 .37098695 .012466431 .2849884 .012466431 .19299317 .011993408 .11399841 .070999149 .11399841 .15299988 .11399841 .22698975 .16899109 .28399659 .24099732 .31698609 .29699708 .2849884 .29899598 .2849884 .37799073 .23799134 .4039917 .22299195 .45399476 .19299317 .45399476 .13398743V.13438416Z"/>
<path id="font_1_43" d="M.46798707 .120407108C.46798707 .13243103 .45498658 .13243103 .45098878 .13243103 .43798829 .13243103 .43699647 .12942505 .43199159 .11540222 .4099884 .05328369 .35699464 .022232056 .29599 .022232056 .22698975 .022232056 .13699341 .07331848 .13699341 .21759033 .13699341 .34448243 .19898987 .41427613 .2919922 .41427613 .30499269 .41441346 .35299684 .41441346 .3889923 .39941407 .37098695 .39128114 .36099244 .37527467 .36099244 .35528565 .36099244 .3284607 .37998963 .30859376 .4079895 .30859376 .43499757 .30859376 .45599366 .32546998 .45599366 .35728456 .45599366 .44628907 .31698609 .44628907 .2889862 .44628907 .13899231 .44628907 .04598999 .33143617 .04598999 .21658325 .04598999 .09034729 .15299988-.009765625 .28399659-.009765625 .43299867-.009765625 .46798707 .10838318 .46798707 .120407108Z"/>
<path id="font_5_1" d="M.36799623 .6563721C.37199403 .67037966 .37199403 .67237856 .37199403 .67736819 .37199403 .6943817 .35699464 .6943817 .34098817 .69337466L.21798706 .68437197C.20098877 .6833801 .19898987 .68237307 .19400025 .67837527 .18998719 .67337039 .18699646 .66137698 .18699646 .65538027 .18699646 .63838198 .20298767 .63838198 .21699524 .63838198 .21798706 .63838198 .23599243 .63838198 .25099183 .63638308 .269989 .6343689 .2709961 .6313782 .2709961 .62338259 .2709961 .6203766 .2709961 .6183777 .2659912 .6003723L.12799073 .04826355C.12399292 .0332489 .12399292 .03125 .12399292 .025253296 .12399292 .002243042 .14199829-.0107421879 .1619873-.0107421879 .18199158-.0107421879 .20399475 .004257202 .20999146 .028259278 .21299744 .038253786 .21699524 .052261354 .23199463 .11628723L.25 .18530274C.2649994 .24533081 .2649994 .24732971 .29299928 .29034425 .33399964 .35235597 .3929901 .40837098 .47200013 .40837098 .522995 .40837098 .5419922 .379364 .5419922 .3363495 .5419922 .28033448 .49899293 .17329407 .4850006 .1382904 .46998597 .10227966 .46699525 .0942688 .46699525 .07727051 .46699525 .025253296 .5169983-.0107421879 .57598879-.0107421879 .6819916-.0107421879 .7369995 .119277957 .7369995 .14428711 .7369995 .15829468 .7200012 .15829468 .71598818 .15829468 .69898989 .15829468 .69799807 .15429688 .69200137 .13528443 .6749878 .08027649 .6299896 .023254395 .5799866 .023254395 .5569916 .023254395 .5499878 .039260866 .5499878 .061264039 .5499878 .08126831 .56199648 .11027527 .57099917 .1342926 .58200076 .16130066 .6259918 .2703247 .6259918 .323349 .6259918 .39237977 .57899478 .4423828 .47698976 .4423828 .37799073 .4423828 .31999208 .379364 .2899933 .34635926L.36799623 .6563721Z"/>
<path id="font_6_1" d="M.44099427 .7259979C.44099427 .72698977 .44400025 .73098757 .44400025 .73599246 .44400025 .73999026 .44198609 .75 .4269867 .75 .40699769 .75 .1499939 .58999636 .1499939 .25 .1499939-.08900452 .40699769-.25 .4269867-.25 .44198609-.25 .44400025-.2400055 .44400025-.23600769 .44400025-.2290039 .43998719-.22601319 .43598939-.2230072 .25898744-.08200073 .22698975 .12098694 .22698975 .25 .22698975 .49499513 .33999635 .6559906 .44099427 .7259979Z"/>
<path id="font_5_2" d="M.31399537 .3856659H.43199159C.45298768 .3856659 .45399476 .3866577 .45899964 .39065553 .46398927 .39465333 .46699525 .4076538 .46699525 .4136505 .46699525 .43066407 .45199586 .43066407 .43499757 .43066407H.32499696L.34599305 .51356509C.35198976 .5395355 .3639984 .5844879 .3639984 .5904846 .3639984 .60746768 .35099793 .62545779 .32699586 .62545779 .30999757 .62545779 .28599549 .6144562 .27799989 .58747866 .272995 .5704956 .2849884 .61746218 .23799134 .43066407H.11898804C.09899902 .43066407 .083999637 .43066407 .083999637 .40264894 .083999637 .3856659 .09799194 .3856659 .115997318 .3856659H.22698975L.16799927 .15104676C.16299439 .1290741 .15499878 .09812927 .15499878 .08615112 .15499878 .02923584 .20799256-.0107421879 .27799989-.0107421879 .39898683-.0107421879 .47299195 .12408447 .47299195 .14405823 .47299195 .15803528 .45599366 .15803528 .45199586 .15803528 .43598939 .15803528 .43399049 .15403748 .42900086 .14105225 .3959961 .06916809 .33399964 .023254395 .28199769 .023254395 .25 .023254395 .23999024 .046218873 .23999024 .076156619 .23999024 .09213257 .24099732 .09513855 .24299622 .10411072L.31399537 .3856659Z"/>
<path id="font_6_2" d="M.3909912 .25C.3909912 .58898928 .13398743 .75 .11399841 .75 .09799194 .75 .09799194 .73799136 .09799194 .73599246 .09799194 .73498538 .09799194 .72898867 .10398865 .72299197 .2539978 .60398867 .31399537 .42999269 .31399537 .25 .31399537 .1599884 .29699708 .06599426 .2630005-.01600647 .21499634-.13000489 .1519928-.18501282 .102996829-.2250061 .099990848-.227005 .09799194-.23200989 .09799194-.23600769 .09799194-.23800659 .09799194-.25 .11399841-.25 .13398743-.25 .3909912-.0900116 .3909912 .25Z"/>
<path id="font_1_81" d="M.5289917 .21325684C.5289917 .3382721 .42199708 .44628907 .28399659 .44628907 .1459961 .44628907 .038986207 .3382721 .038986207 .21325684 .038986207 .0892334 .14898682-.009765625 .28399659-.009765625 .4189911-.009765625 .5289917 .0892334 .5289917 .21325684M.43798829 .22225952C.43798829 .17424011 .43499757 .12124634 .4059906 .08023071 .3789978 .042236329 .33299256 .022232056 .28399659 .022232056 .24699402 .022232056 .19299317 .034225465 .1599884 .083236698 .1329956 .12423706 .12998963 .17625427 .12998963 .22225952 .12998963 .2652588 .1309967 .32426454 .1659851 .36727906 .19099427 .39627076 .23298645 .41827394 .28399659 .41827394 .34298707 .41827394 .3849945 .39027406 .40699769 .3592682 .43499757 .32026673 .43798829 .27026368 .43798829 .22225952Z"/>
<path id="font_3_2" d="M.28199769 .20405579C.2979889 .21907044 .33999635 .2520752 .35598756 .26608277 .41799928 .32312013 .47698976 .3781433 .47698976 .46917726 .47698976 .588089 .3769989 .66503909 .2519989 .66503909 .13198853 .66503909 .052993776 .57411196 .052993776 .48516847 .052993776 .4361725 .09199524 .4291687 .10598755 .4291687 .1269989 .4291687 .1579895 .4441681 .1579895 .48217774 .1579895 .5341797 .10798645 .5341797 .09599304 .5341797 .125 .6070709 .19198609 .6320343 .24099732 .6320343 .33399964 .6320343 .38198854 .55314639 .38198854 .46917726 .38198854 .36514283 .30899049 .28910829 .19099427 .16804505L.06498718 .037994386C.052993776 .026992798 .052993776 .024993897 .052993776 0H.44799806L.47698976 .17904663H.44599916C.44299317 .1590271 .43499757 .10900879 .4229889 .08999634 .4169922 .08198547 .34098817 .08198547 .32499696 .08198547H.14698792L.28199769 .20405579Z"/>
<path id="font_7_1" d="M.69999697 .46954347C.71099856 .48054505 .71398928 .48654176 .71398928 .49354554 .71398928 .509552 .70098879 .5185547 .6899872 .5185547 .6799927 .5185547 .6769867 .5155487 .6649933 .50354006L.44599916 .28547669 .22599793 .5045471C.21598816 .5145416 .21199036 .5185547 .20298767 .5185547 .18899536 .5185547 .17799378 .5075531 .17799378 .49354554 .17799378 .48454286 .18099976 .48153688 .19299317 .46954347L.41099549 .25146485 .19299317 .03340149C.1789856 .01939392 .17799378 .014389038 .17799378 .008392334 .17799378-.0056152346 .18899536-.016601563 .20298767-.016601563 .21199036-.016601563 .21499634-.01361084 .22599793-.002609253L.44599916 .21646118 .673996-.0116119389C.67900088-.014602661 .6839905-.016601563 .6899872-.016601563 .70098879-.016601563 .71398928-.0076141359 .71398928 .008392334 .71398928 .01638794 .71199038 .0184021 .70899966 .021392823 .70700076 .025390625 .5130005 .2194519 .48098756 .25047303L.69999697 .46954347Z"/>
<path id="font_8_1" d="M.5049896 .18203736H.47099305C.46798707 .16001892 .45799256 .100997928 .44499208 .09098816 .43699647 .084991458 .3600006 .084991458 .34599305 .084991458H.1619873C.2669983 .17803955 .3019867 .20603943 .3619995 .25306703 .43598939 .312088 .5049896 .374115 .5049896 .46914674 .5049896 .5900879 .39898683 .6640625 .2709961 .6640625 .14698792 .6640625 .06298828 .57710269 .06298828 .4851532 .06298828 .43414308 .10598755 .42915345 .115997318 .42915345 .13999939 .42915345 .16899109 .44615174 .16899109 .48214723 .16899109 .5001526 .1619873 .53515627 .10998535 .53515627 .14099121 .6060791 .20899964 .62805178 .2559967 .62805178 .35598756 .62805178 .4079895 .5501404 .4079895 .46914674 .4079895 .38212586 .34599305 .3130951 .31399537 .27708436L.07299805 .038986207C.06298828 .02999878 .06298828 .027999878 .06298828 0H.47499085L.5049896 .18203736Z"/>
<path id="font_1_57" d="M.5289917 .1640625V.20005799H.41799928V.6458435C.41799928 .66682437 .41799928 .6738281 .3959961 .6738281 .38398744 .6738281 .37998963 .6738281 .36999513 .6598358L.038986207 .20005799V.1640625H.33299256V.08201599C.33299256 .04800415 .33299256 .035995485 .2519989 .035995485H.22499085V0L.375 .0039978029 .526001 0V.035995485H.49899293C.41799928 .035995485 .41799928 .04800415 .41799928 .08201599V.1640625H.5289917M.33999635 .20005799H.07598877L.33999635 .5658722V.20005799Z"/>
<path id="font_3_3" d="M.3939972 .6468048C.3939972 .6667938 .3939972 .6748047 .37298585 .6748047 .3600006 .6748047 .35899354 .6737976 .34899903 .65979006L.02999878 .197052V.1640625H.31199647V.08100891C.31199647 .04399109 .30899049 .032989503 .23199463 .032989503H.20899964V0C.2939911 .0029907227 .29599 .0029907227 .35299684 .0029907227 .4099884 .0029907227 .4119873 .0029907227 .49699403 0V.032989503H.47399903C.39698792 .032989503 .3939972 .04399109 .3939972 .08100891V.1640625H.5V.197052H.3939972V.6468048M.31900025 .5658417V.197052H.06498718L.31900025 .5658417Z"/>
<path id="font_8_2" d="M.5289917 .1640625V.20005799H.41799928V.64582827C.41799928 .66682437 .41799928 .6738281 .3959961 .6738281 .38398744 .6738281 .37998963 .6738281 .36999513 .65982058L.038986207 .20005799V.1640625H.33299256V.08201599C.33299256 .04800415 .33299256 .035995485 .2519989 .035995485H.22499085V0C.2749939 .0019989014 .33898927 .0039978029 .375 .0039978029 .4119873 .0039978029 .47599793 .0019989014 .526001 0V.035995485H.49899293C.41799928 .035995485 .41799928 .04800415 .41799928 .08201599V.1640625H.5289917M.33999635 .5658722V.20005799H.07598877L.33999635 .5658722Z"/>
<path id="font_3_4" d="M.33198548 .36080934C.3880005 .38783265 .45599366 .4378662 .45599366 .5159302 .45599366 .6110077 .35899354 .66503909 .2659912 .66503909 .1599884 .66503909 .07398987 .59199526 .07398987 .49790956 .07398987 .46089173 .08699036 .42686463 .11199951 .39782716 .1289978 .3768158 .1329956 .3748169 .19499207 .3357849 .070999149 .2807312 .04399109 .20767212 .04399109 .15162659 .04399109 .041534425 .15499878-.021484375 .2639923-.021484375 .3869934-.021484375 .48599244 .061553956 .48599244 .16764832 .48599244 .23069763 .45199586 .2727356 .43598939 .28974916 .4189911 .30575563 .41799928 .3067627 .33198548 .36080934M.1769867 .45487977C.147995 .4718933 .12399292 .5009155 .12399292 .5359497 .12399292 .598999 .19299317 .6390381 .2639923 .6390381 .34199525 .6390381 .4059906 .5859833 .4059906 .5159302 .4059906 .45788575 .36099244 .408844 .3019867 .37982179L.1769867 .45487977M.22599793 .31776429C.22999573 .31576539 .34399415 .24571228 .36099244 .23469544 .3769989 .22569275 .42900086 .19366455 .42900086 .13360596 .42900086 .056549074 .34799195 .008514404 .2659912 .008514404 .1769867 .008514404 .100997928 .06956482 .100997928 .15162659 .100997928 .22668457 .15699768 .28573609 .22599793 .31776429Z"/>
<path id="font_8_3" d="M.35499574 .36123658C.43299867 .3992157 .48298646 .44618226 .48298646 .5151367 .48298646 .6120758 .38198854 .6640625 .2849884 .6640625 .1749878 .6640625 .084991458 .5920868 .084991458 .4971466 .084991458 .45018006 .10699463 .41619874 .125 .39620973 .14299011 .37522889 .1499939 .37123109 .20899964 .33624269 .15299988 .31227113 .053985597 .25830079 .053985597 .15336609 .053985597 .042434694 .16899109-.01953125 .2829895-.01953125 .4099884-.01953125 .5139923 .061431886 .5139923 .1693573 .5139923 .23532105 .47499085 .29127503 .4169922 .32525636 .4039917 .33325196 .36898805 .35324098 .35499574 .36123658M.19198609 .45617677C.1659851 .4711609 .13798523 .49813844 .13798523 .53512576 .13798523 .5980835 .21099854 .63505557 .2829895 .63505557 .36099244 .63505557 .42999269 .5860901 .42999269 .5151367 .42999269 .42619325 .32598878 .3812256 .32398988 .3812256 .32199098 .3812256 .31999208 .3822174 .31298829 .3862152L.19198609 .45617677M.24099732 .31726075 .37799073 .23831177C.4039917 .22332764 .45399476 .19334412 .45399476 .13438416 .45399476 .059432985 .37098695 .012466431 .2849884 .012466431 .19299317 .012466431 .11399841 .07142639 .11399841 .15336609 .11399841 .22732544 .16899109 .2842865 .24099732 .31726075Z"/>
</defs>
<path transform="matrix(1,0,0,-1,21.9178,142.95587)" d="M15.69136 124.72653H-15.69136C-16.79182 124.72653-17.68391 123.83446-17.68391 122.73398V1.99263C-17.68391 .89217-16.79182 .00008-15.69136 .00008H15.69136C16.79182 .00008 17.68391 .89217 17.68391 1.99263V122.73398C17.68391 123.83446 16.79182 124.72653 15.69136 124.72653ZM-17.68391 .00008" fill="#c7c7ff"/>
<path transform="matrix(1,0,0,-1,21.9178,142.95587)" stroke-width=".49814" stroke-linecap="butt" stroke-miterlimit="10" stroke-linejoin="miter" fill="none" stroke="#000000" d="M15.69136 124.72653H-15.69136C-16.79182 124.72653-17.68391 123.83446-17.68391 122.73398V1.99263C-17.68391 .89217-16.79182 .00008-15.69136 .00008H15.69136C16.79182 .00008 17.68391 .89217 17.68391 1.99263V122.73398C17.68391 123.83446 16.79182 124.72653 15.69136 124.72653ZM-17.68391 .00008"/>
<use data-text="2" xlink:href="#font_1_107" transform="matrix(6.973848,0,0,-6.973848,6.7146189,78.99266)"/>
<use data-text="0" xlink:href="#font_1_121" transform="matrix(6.973848,0,0,-6.973848,10.682739,78.99266)"/>
<use data-text="l" xlink:href="#font_1_72" transform="matrix(6.973848,0,0,-6.973848,17.335793,78.99266)"/>
<use data-text="a" xlink:href="#font_1_28" transform="matrix(6.973848,0,0,-6.973848,19.588345,78.99266)"/>
<use data-text="y" xlink:href="#font_1_118" transform="matrix(6.973848,0,0,-6.973848,23.347249,78.99266)"/>
<use data-text="e" xlink:href="#font_1_50" transform="matrix(6.973848,0,0,-6.973848,27.315369,78.99266)"/>
<use data-text="r" xlink:href="#font_1_96" transform="matrix(6.973848,0,0,-6.973848,30.858084,78.99266)"/>
<use data-text="s" xlink:href="#font_1_98" transform="matrix(6.973848,0,0,-6.973848,33.968423,78.99266)"/>
<use data-text="u" xlink:href="#font_1_109" transform="matrix(6.973848,0,0,-6.973848,6.226448,86.96277)"/>
<use data-text="n" xlink:href="#font_1_77" transform="matrix(6.973848,0,0,-6.973848,10.6269459,86.96277)"/>
<use data-text="s" xlink:href="#font_1_98" transform="matrix(6.973848,0,0,-6.973848,15.027443,86.96277)"/>
<use data-text="h" xlink:href="#font_1_63" transform="matrix(6.973848,0,0,-6.973848,18.186596,86.96277)"/>
<use data-text="a" xlink:href="#font_1_28" transform="matrix(6.973848,0,0,-6.973848,22.587094,86.96277)"/>
<use data-text="r" xlink:href="#font_1_96" transform="matrix(6.973848,0,0,-6.973848,26.555212,86.96277)"/>
<use data-text="e" xlink:href="#font_1_50" transform="matrix(6.973848,0,0,-6.973848,29.665549,86.96277)"/>
<use data-text="d" xlink:href="#font_1_47" transform="matrix(6.973848,0,0,-6.973848,33.208265,86.96277)"/>
<use data-text="r" xlink:href="#font_2_1" transform="matrix(7.970112,0,0,-7.970112,14.479065,12.44162)"/>
<use data-text="=" xlink:href="#font_3_5" transform="matrix(7.970112,0,0,-7.970112,18.535664,12.44162)"/>
<use data-text="1" xlink:href="#font_3_1" transform="matrix(7.970112,0,0,-7.970112,25.118977,12.44162)"/>
<path transform="matrix(1,0,0,-1,21.9178,142.95587)" d="M72.84526 12.47264H40.54196C39.4415 12.47264 38.54941 11.58055 38.54941 10.48009V1.99255C38.54941 .89207 39.4415 0 40.54196 0H72.84526C73.94572 0 74.83781 .89207 74.83781 1.99255V10.48009C74.83781 11.58055 73.94572 12.47264 72.84526 12.47264ZM38.54941 0" fill="#dfdfdf"/>
<path transform="matrix(1,0,0,-1,21.9178,142.95587)" stroke-width=".49814" stroke-linecap="butt" stroke-miterlimit="10" stroke-linejoin="miter" fill="none" stroke="#000000" d="M72.84526 12.47264H40.54196C39.4415 12.47264 38.54941 11.58055 38.54941 10.48009V1.99255C38.54941 .89207 39.4415 0 40.54196 0H72.84526C73.94572 0 74.83781 .89207 74.83781 1.99255V10.48009C74.83781 11.58055 73.94572 12.47264 72.84526 12.47264ZM38.54941 0"/>
<use data-text="2" xlink:href="#font_1_107" transform="matrix(6.973848,0,0,-6.973848,62.459764,138.46306)"/>
<use data-text="p" xlink:href="#font_1_84" transform="matrix(6.973848,0,0,-6.973848,69.112819,138.46306)"/>
<use data-text="r" xlink:href="#font_1_96" transform="matrix(6.973848,0,0,-6.973848,73.51331,138.46306)"/>
<use data-text="e" xlink:href="#font_1_50" transform="matrix(6.973848,0,0,-6.973848,76.62365,138.46306)"/>
<use data-text="l" xlink:href="#font_1_72" transform="matrix(6.973848,0,0,-6.973848,80.16637,138.46306)"/>
<use data-text="u" xlink:href="#font_1_109" transform="matrix(6.973848,0,0,-6.973848,82.418918,138.46306)"/>
<use data-text="d" xlink:href="#font_1_47" transform="matrix(6.973848,0,0,-6.973848,86.81941,138.46306)"/>
<use data-text="e" xlink:href="#font_1_50" transform="matrix(6.973848,0,0,-6.973848,91.21991,138.46306)"/>
<path transform="matrix(1,0,0,-1,21.9178,142.95587)" d="M69.58318 22.47116H43.80405C42.70358 22.47116 41.8115 21.57909 41.8115 20.4786V15.95961C41.8115 14.85913 42.70358 13.96706 43.80405 13.96706H69.58318C70.68364 13.96706 71.57573 14.85913 71.57573 15.95961V20.4786C71.57573 21.57909 70.68364 22.47116 69.58318 22.47116ZM41.8115 13.96706" fill="#adffad"/>
<path transform="matrix(1,0,0,-1,21.9178,142.95587)" stroke-width=".49814" stroke-linecap="butt" stroke-miterlimit="10" stroke-linejoin="miter" fill="none" stroke="#000000" d="M69.58318 22.47116H43.80405C42.70358 22.47116 41.8115 21.57909 41.8115 20.4786V15.95961C41.8115 14.85913 42.70358 13.96706 43.80405 13.96706H69.58318C70.68364 13.96706 71.57573 14.85913 71.57573 15.95961V20.4786C71.57573 21.57909 70.68364 22.47116 69.58318 22.47116ZM41.8115 13.96706"/>
<use data-text="i" xlink:href="#font_4_66" transform="matrix(4.98132,0,0,-4.98132,70.25514,125.87253)"/>
<use data-text="n" xlink:href="#font_4_77" transform="matrix(4.98132,0,0,-4.98132,72.26262,125.87253)"/>
<use data-text="j" xlink:href="#font_4_68" transform="matrix(4.98132,0,0,-4.98132,75.998607,125.87253)"/>
<use data-text="e" xlink:href="#font_4_50" transform="matrix(4.98132,0,0,-4.98132,78.18042,125.87253)"/>
<use data-text="c" xlink:href="#font_4_43" transform="matrix(4.98132,0,0,-4.98132,81.224018,125.87253)"/>
<use data-text="t" xlink:href="#font_4_105" transform="matrix(4.98132,0,0,-4.98132,84.26759,125.87253)"/>
<path transform="matrix(1,0,0,-1,21.9178,142.95587)" d="M69.58318 73.85616H43.80405C42.70358 73.85616 41.8115 72.96408 41.8115 71.8636V25.95813C41.8115 24.85767 42.70358 23.96558 43.80405 23.96558H69.58318C70.68364 23.96558 71.57573 24.85767 71.57573 25.95813V71.8636C71.57573 72.96408 70.68364 73.85616 69.58318 73.85616ZM41.8115 23.96558" fill="#ffcf9e"/>
<path transform="matrix(1,0,0,-1,21.9178,142.95587)" stroke-width=".49814" stroke-linecap="butt" stroke-miterlimit="10" stroke-linejoin="miter" fill="none" stroke="#000000" d="M69.58318 73.85616H43.80405C42.70358 73.85616 41.8115 72.96408 41.8115 71.8636V25.95813C41.8115 24.85767 42.70358 23.96558 43.80405 23.96558H69.58318C70.68364 23.96558 71.57573 24.85767 71.57573 25.95813V71.8636C71.57573 72.96408 70.68364 73.85616 69.58318 73.85616ZM41.8115 23.96558"/>
<use data-text="8" xlink:href="#font_1_51" transform="matrix(6.973848,0,0,-6.973848,66.43144,91.66402)"/>
<use data-text="r" xlink:href="#font_1_96" transform="matrix(6.973848,0,0,-6.973848,73.084499,91.66402)"/>
<use data-text="e" xlink:href="#font_1_50" transform="matrix(6.973848,0,0,-6.973848,76.19483,91.66402)"/>
<use data-text="c" xlink:href="#font_1_43" transform="matrix(6.973848,0,0,-6.973848,79.73755,91.66402)"/>
<use data-text="u" xlink:href="#font_1_109" transform="matrix(6.973848,0,0,-6.973848,83.28026,91.66402)"/>
<use data-text="r" xlink:href="#font_1_96" transform="matrix(6.973848,0,0,-6.973848,87.680759,91.66402)"/>
<use data-text="l" xlink:href="#font_1_72" transform="matrix(6.973848,0,0,-6.973848,68.71887,99.634128)"/>
<use data-text="a" xlink:href="#font_1_28" transform="matrix(6.973848,0,0,-6.973848,70.97142,99.634128)"/>
<use data-text="y" xlink:href="#font_1_118" transform="matrix(6.973848,0,0,-6.973848,74.73033,99.634128)"/>
<use data-text="e" xlink:href="#font_1_50" transform="matrix(6.973848,0,0,-6.973848,78.69844,99.634128)"/>
<use data-text="r" xlink:href="#font_1_96" transform="matrix(6.973848,0,0,-6.973848,82.24116,99.634128)"/>
<use data-text="s" xlink:href="#font_1_98" transform="matrix(6.973848,0,0,-6.973848,85.351497,99.634128)"/>
<path transform="matrix(1,0,0,-1,21.9178,142.95587)" d="M69.58318 83.85468H43.80405C42.70358 83.85468 41.8115 82.9626 41.8115 81.86212V77.34312C41.8115 76.24266 42.70358 75.35057 43.80405 75.35057H69.58318C70.68364 75.35057 71.57573 76.24266 71.57573 77.34312V81.86212C71.57573 82.9626 70.68364 83.85468 69.58318 83.85468ZM41.8115 75.35057" fill="#fff799"/>
<path transform="matrix(1,0,0,-1,21.9178,142.95587)" stroke-width=".49814" stroke-linecap="butt" stroke-miterlimit="10" stroke-linejoin="miter" fill="none" stroke="#000000" d="M69.58318 83.85468H43.80405C42.70358 83.85468 41.8115 82.9626 41.8115 81.86212V77.34312C41.8115 76.24266 42.70358 75.35057 43.80405 75.35057H69.58318C70.68364 75.35057 71.57573 76.24266 71.57573 77.34312V81.86212C71.57573 82.9626 70.68364 83.85468 69.58318 83.85468ZM41.8115 75.35057"/>
<use data-text="h" xlink:href="#font_5_1" transform="matrix(4.98132,0,0,-4.98132,72.198978,66.22638)"/>
<use data-text="(" xlink:href="#font_6_1" transform="matrix(4.98132,0,0,-4.98132,76.321308,64.216159)"/>
<use data-text="t" xlink:href="#font_5_2" transform="matrix(4.98132,0,0,-4.98132,79.01956,64.216159)"/>
<use data-text=")" xlink:href="#font_6_2" transform="matrix(4.98132,0,0,-4.98132,81.82736,64.216159)"/>
<path transform="matrix(1,0,0,-1,21.9178,142.95587)" d="M69.58318 97.82175H43.80405C42.70358 97.82175 41.8115 96.92966 41.8115 95.8292V87.34164C41.8115 86.24118 42.70358 85.34909 43.80405 85.34909H69.58318C70.68364 85.34909 71.57573 86.24118 71.57573 87.34164V95.8292C71.57573 96.92966 70.68364 97.82175 69.58318 97.82175ZM41.8115 85.34909" fill="#dfdfdf"/>
<path transform="matrix(1,0,0,-1,21.9178,142.95587)" stroke-width=".49814" stroke-linecap="butt" stroke-miterlimit="10" stroke-linejoin="miter" fill="none" stroke="#000000" d="M69.58318 97.82175H43.80405C42.70358 97.82175 41.8115 96.92966 41.8115 95.8292V87.34164C41.8115 86.24118 42.70358 85.34909 43.80405 85.34909H69.58318C70.68364 85.34909 71.57573 86.24118 71.57573 87.34164V95.8292C71.57573 96.92966 70.68364 97.82175 69.58318 97.82175ZM41.8115 85.34909"/>
<use data-text="2" xlink:href="#font_1_107" transform="matrix(6.973848,0,0,-6.973848,67.2369,53.755556)"/>
<use data-text="c" xlink:href="#font_1_43" transform="matrix(6.973848,0,0,-6.973848,73.88995,53.755556)"/>
<use data-text="o" xlink:href="#font_1_81" transform="matrix(6.973848,0,0,-6.973848,77.43266,53.755556)"/>
<use data-text="d" xlink:href="#font_1_47" transform="matrix(6.973848,0,0,-6.973848,81.616977,53.755556)"/>
<use data-text="a" xlink:href="#font_1_28" transform="matrix(6.973848,0,0,-6.973848,86.01747,53.755556)"/>
<use data-text="r" xlink:href="#font_2_1" transform="matrix(7.970112,0,0,-7.970112,71.17267,12.44162)"/>
<use data-text="=" xlink:href="#font_3_5" transform="matrix(7.970112,0,0,-7.970112,75.22926,12.44162)"/>
<use data-text="2" xlink:href="#font_3_2" transform="matrix(7.970112,0,0,-7.970112,81.81258,12.44162)"/>
<path transform="matrix(1,0,0,-1,21.9178,142.95587)" stroke-width=".59776" stroke-linecap="butt" stroke-miterlimit="10" stroke-linejoin="miter" fill="none" stroke="#a60000" d="M73.52553 79.60263H80.32892V18.2191H76.62811"/>
<path transform="matrix(-1,-0,0,1,98.54591,124.73677)" d="M2.43735 0C2.13802 .07541 .82231 .50276 0 .96782V-.96782C.82231-.50276 2.13802-.07541 2.43735 0Z" fill="#a60000"/>
<path transform="matrix(-1,-0,0,1,98.54591,124.73677)" stroke-width=".59776" stroke-linecap="butt" stroke-miterlimit="10" stroke-linejoin="miter" fill="none" stroke="#a60000" d="M2.43735 0C2.13802 .07541 .82231 .50276 0 .96782V-.96782C.82231-.50276 2.13802-.07541 2.43735 0Z"/>
<use data-text="&#x00d7;" xlink:href="#font_7_1" transform="matrix(6.973848,0,0,-6.973848,106.33359,95.877048)" fill="#a60000"/>
<use data-text="2" xlink:href="#font_8_1" transform="matrix(6.973848,0,0,-6.973848,112.56027,95.877048)" fill="#a60000"/>
<path transform="matrix(1,0,0,-1,21.9178,142.95587)" d="M129.53888 12.47264H97.23558C96.13512 12.47264 95.24303 11.58055 95.24303 10.48009V1.99255C95.24303 .89207 96.13512 0 97.23558 0H129.53888C130.63935 0 131.53144 .89207 131.53144 1.99255V10.48009C131.53144 11.58055 130.63935 12.47264 129.53888 12.47264ZM95.24303 0" fill="#dfdfdf"/>
<path transform="matrix(1,0,0,-1,21.9178,142.95587)" stroke-width=".49814" stroke-linecap="butt" stroke-miterlimit="10" stroke-linejoin="miter" fill="none" stroke="#000000" d="M129.53888 12.47264H97.23558C96.13512 12.47264 95.24303 11.58055 95.24303 10.48009V1.99255C95.24303 .89207 96.13512 0 97.23558 0H129.53888C130.63935 0 131.53144 .89207 131.53144 1.99255V10.48009C131.53144 11.58055 130.63935 12.47264 129.53888 12.47264ZM95.24303 0"/>
<use data-text="2" xlink:href="#font_1_107" transform="matrix(6.973848,0,0,-6.973848,119.15338,138.46306)"/>
<use data-text="p" xlink:href="#font_1_84" transform="matrix(6.973848,0,0,-6.973848,125.806438,138.46306)"/>
<use data-text="r" xlink:href="#font_1_96" transform="matrix(6.973848,0,0,-6.973848,130.20694,138.46306)"/>
<use data-text="e" xlink:href="#font_1_50" transform="matrix(6.973848,0,0,-6.973848,133.31726,138.46306)"/>
<use data-text="l" xlink:href="#font_1_72" transform="matrix(6.973848,0,0,-6.973848,136.85999,138.46306)"/>
<use data-text="u" xlink:href="#font_1_109" transform="matrix(6.973848,0,0,-6.973848,139.11254,138.46306)"/>
<use data-text="d" xlink:href="#font_1_47" transform="matrix(6.973848,0,0,-6.973848,143.51303,138.46306)"/>
<use data-text="e" xlink:href="#font_1_50" transform="matrix(6.973848,0,0,-6.973848,147.91353,138.46306)"/>
<path transform="matrix(1,0,0,-1,21.9178,142.95587)" d="M126.2768 22.47116H100.49767C99.3972 22.47116 98.50511 21.57909 98.50511 20.4786V15.95961C98.50511 14.85913 99.3972 13.96706 100.49767 13.96706H126.2768C127.37726 13.96706 128.26935 14.85913 128.26935 15.95961V20.4786C128.26935 21.57909 127.37726 22.47116 126.2768 22.47116ZM98.50511 13.96706" fill="#adffad"/>
<path transform="matrix(1,0,0,-1,21.9178,142.95587)" stroke-width=".49814" stroke-linecap="butt" stroke-miterlimit="10" stroke-linejoin="miter" fill="none" stroke="#000000" d="M126.2768 22.47116H100.49767C99.3972 22.47116 98.50511 21.57909 98.50511 20.4786V15.95961C98.50511 14.85913 99.3972 13.96706 100.49767 13.96706H126.2768C127.37726 13.96706 128.26935 14.85913 128.26935 15.95961V20.4786C128.26935 21.57909 127.37726 22.47116 126.2768 22.47116ZM98.50511 13.96706"/>
<use data-text="i" xlink:href="#font_4_66" transform="matrix(4.98132,0,0,-4.98132,126.94876,125.87253)"/>
<use data-text="n" xlink:href="#font_4_77" transform="matrix(4.98132,0,0,-4.98132,128.95624,125.87253)"/>
<use data-text="j" xlink:href="#font_4_68" transform="matrix(4.98132,0,0,-4.98132,132.69223,125.87253)"/>
<use data-text="e" xlink:href="#font_4_50" transform="matrix(4.98132,0,0,-4.98132,134.87404,125.87253)"/>
<use data-text="c" xlink:href="#font_4_43" transform="matrix(4.98132,0,0,-4.98132,137.91764,125.87253)"/>
<use data-text="t" xlink:href="#font_4_105" transform="matrix(4.98132,0,0,-4.98132,140.96121,125.87253)"/>
<path transform="matrix(1,0,0,-1,21.9178,142.95587)" d="M126.2768 48.91087H100.49767C99.3972 48.91087 98.50511 48.01878 98.50511 46.91832V25.95813C98.50511 24.85767 99.3972 23.96558 100.49767 23.96558H126.2768C127.37726 23.96558 128.26935 24.85767 128.26935 25.95813V46.91832C128.26935 48.01878 127.37726 48.91087 126.2768 48.91087ZM98.50511 23.96558" fill="#ffcf9e"/>
<path transform="matrix(1,0,0,-1,21.9178,142.95587)" stroke-width=".49814" stroke-linecap="butt" stroke-miterlimit="10" stroke-linejoin="miter" fill="none" stroke="#000000" d="M126.2768 48.91087H100.49767C99.3972 48.91087 98.50511 48.01878 98.50511 46.91832V25.95813C98.50511 24.85767 99.3972 23.96558 100.49767 23.96558H126.2768C127.37726 23.96558 128.26935 24.85767 128.26935 25.95813V46.91832C128.26935 48.01878 127.37726 48.91087 126.2768 48.91087ZM98.50511 23.96558"/>
<use data-text="4" xlink:href="#font_1_57" transform="matrix(6.973848,0,0,-6.973848,123.12506,104.171527)"/>
<use data-text="r" xlink:href="#font_1_96" transform="matrix(6.973848,0,0,-6.973848,129.7781,104.171527)"/>
<use data-text="e" xlink:href="#font_1_50" transform="matrix(6.973848,0,0,-6.973848,132.88846,104.171527)"/>
<use data-text="c" xlink:href="#font_1_43" transform="matrix(6.973848,0,0,-6.973848,136.43117,104.171527)"/>
<use data-text="u" xlink:href="#font_1_109" transform="matrix(6.973848,0,0,-6.973848,139.97388,104.171527)"/>
<use data-text="r" xlink:href="#font_1_96" transform="matrix(6.973848,0,0,-6.973848,144.37438,104.171527)"/>
<use data-text="l" xlink:href="#font_1_72" transform="matrix(6.973848,0,0,-6.973848,125.41249,112.14163)"/>
<use data-text="a" xlink:href="#font_1_28" transform="matrix(6.973848,0,0,-6.973848,127.66504,112.14163)"/>
<use data-text="y" xlink:href="#font_1_118" transform="matrix(6.973848,0,0,-6.973848,131.42395,112.14163)"/>
<use data-text="e" xlink:href="#font_1_50" transform="matrix(6.973848,0,0,-6.973848,135.39206,112.14163)"/>
<use data-text="r" xlink:href="#font_1_96" transform="matrix(6.973848,0,0,-6.973848,138.93479,112.14163)"/>
<use data-text="s" xlink:href="#font_1_98" transform="matrix(6.973848,0,0,-6.973848,142.0451,112.14163)"/>
<path transform="matrix(1,0,0,-1,21.9178,142.95587)" d="M126.2768 58.9094H100.49767C99.3972 58.9094 98.50511 58.0173 98.50511 56.91684V52.39784C98.50511 51.29736 99.3972 50.40529 100.49767 50.40529H126.2768C127.37726 50.40529 128.26935 51.29736 128.26935 52.39784V56.91684C128.26935 58.0173 127.37726 58.9094 126.2768 58.9094ZM98.50511 50.40529" fill="#fff799"/>
<path transform="matrix(1,0,0,-1,21.9178,142.95587)" stroke-width=".49814" stroke-linecap="butt" stroke-miterlimit="10" stroke-linejoin="miter" fill="none" stroke="#000000" d="M126.2768 58.9094H100.49767C99.3972 58.9094 98.50511 58.0173 98.50511 56.91684V52.39784C98.50511 51.29736 99.3972 50.40529 100.49767 50.40529H126.2768C127.37726 50.40529 128.26935 51.29736 128.26935 52.39784V56.91684C128.26935 58.0173 127.37726 58.9094 126.2768 58.9094ZM98.50511 50.40529"/>
<use data-text="h" xlink:href="#font_5_1" transform="matrix(4.98132,0,0,-4.98132,128.8926,91.17168)"/>
<use data-text="(" xlink:href="#font_6_1" transform="matrix(4.98132,0,0,-4.98132,133.01493,89.16145)"/>
<use data-text="t" xlink:href="#font_5_2" transform="matrix(4.98132,0,0,-4.98132,135.71318,89.16145)"/>
<use data-text=")" xlink:href="#font_6_2" transform="matrix(4.98132,0,0,-4.98132,138.52098,89.16145)"/>
<path transform="matrix(1,0,0,-1,21.9178,142.95587)" d="M126.2768 72.87645H100.49767C99.3972 72.87645 98.50511 71.98438 98.50511 70.8839V62.39636C98.50511 61.29588 99.3972 60.40381 100.49767 60.40381H126.2768C127.37726 60.40381 128.26935 61.29588 128.26935 62.39636V70.8839C128.26935 71.98438 127.37726 72.87645 126.2768 72.87645ZM98.50511 60.40381" fill="#dfdfdf"/>
<path transform="matrix(1,0,0,-1,21.9178,142.95587)" stroke-width=".49814" stroke-linecap="butt" stroke-miterlimit="10" stroke-linejoin="miter" fill="none" stroke="#000000" d="M126.2768 72.87645H100.49767C99.3972 72.87645 98.50511 71.98438 98.50511 70.8839V62.39636C98.50511 61.29588 99.3972 60.40381 100.49767 60.40381H126.2768C127.37726 60.40381 128.26935 61.29588 128.26935 62.39636V70.8839C128.26935 71.98438 127.37726 72.87645 126.2768 72.87645ZM98.50511 60.40381"/>
<use data-text="2" xlink:href="#font_1_107" transform="matrix(6.973848,0,0,-6.973848,123.93053,78.70083)"/>
<use data-text="c" xlink:href="#font_1_43" transform="matrix(6.973848,0,0,-6.973848,130.58359,78.70083)"/>
<use data-text="o" xlink:href="#font_1_81" transform="matrix(6.973848,0,0,-6.973848,134.1263,78.70083)"/>
<use data-text="d" xlink:href="#font_1_47" transform="matrix(6.973848,0,0,-6.973848,138.31061,78.70083)"/>
<use data-text="a" xlink:href="#font_1_28" transform="matrix(6.973848,0,0,-6.973848,142.7111,78.70083)"/>
<use data-text="r" xlink:href="#font_2_1" transform="matrix(7.970112,0,0,-7.970112,127.86629,12.44162)"/>
<use data-text="=" xlink:href="#font_3_5" transform="matrix(7.970112,0,0,-7.970112,131.92288,12.44162)"/>
<use data-text="4" xlink:href="#font_3_3" transform="matrix(7.970112,0,0,-7.970112,138.5062,12.44162)"/>
<path transform="matrix(1,0,0,-1,21.9178,142.95587)" stroke-width=".59776" stroke-linecap="butt" stroke-miterlimit="10" stroke-linejoin="miter" fill="none" stroke="#a60000" d="M130.21915 54.65733H137.02254V18.2191H133.32173"/>
<path transform="matrix(-1,-0,0,1,155.23954,124.73677)" d="M2.43735 0C2.13802 .07541 .82231 .50276 0 .96782V-.96782C.82231-.50276 2.13802-.07541 2.43735 0Z" fill="#a60000"/>
<path transform="matrix(-1,-0,0,1,155.23954,124.73677)" stroke-width=".59776" stroke-linecap="butt" stroke-miterlimit="10" stroke-linejoin="miter" fill="none" stroke="#a60000" d="M2.43735 0C2.13802 .07541 .82231 .50276 0 .96782V-.96782C.82231-.50276 2.13802-.07541 2.43735 0Z"/>
<use data-text="&#x00d7;" xlink:href="#font_7_1" transform="matrix(6.973848,0,0,-6.973848,163.0272,108.349689)" fill="#a60000"/>
<use data-text="4" xlink:href="#font_8_2" transform="matrix(6.973848,0,0,-6.973848,169.25389,108.349689)" fill="#a60000"/>
<path transform="matrix(1,0,0,-1,21.9178,142.95587)" d="M186.2325 12.47264H153.9292C152.82874 12.47264 151.93665 11.58055 151.93665 10.48009V1.99255C151.93665 .89207 152.82874 0 153.9292 0H186.2325C187.33296 0 188.22505 .89207 188.22505 1.99255V10.48009C188.22505 11.58055 187.33296 12.47264 186.2325 12.47264ZM151.93665 0" fill="#dfdfdf"/>
<path transform="matrix(1,0,0,-1,21.9178,142.95587)" stroke-width=".49814" stroke-linecap="butt" stroke-miterlimit="10" stroke-linejoin="miter" fill="none" stroke="#000000" d="M186.2325 12.47264H153.9292C152.82874 12.47264 151.93665 11.58055 151.93665 10.48009V1.99255C151.93665 .89207 152.82874 0 153.9292 0H186.2325C187.33296 0 188.22505 .89207 188.22505 1.99255V10.48009C188.22505 11.58055 187.33296 12.47264 186.2325 12.47264ZM151.93665 0"/>
<use data-text="2" xlink:href="#font_1_107" transform="matrix(6.973848,0,0,-6.973848,175.847,138.46306)"/>
<use data-text="p" xlink:href="#font_1_84" transform="matrix(6.973848,0,0,-6.973848,182.50006,138.46306)"/>
<use data-text="r" xlink:href="#font_1_96" transform="matrix(6.973848,0,0,-6.973848,186.90055,138.46306)"/>
<use data-text="e" xlink:href="#font_1_50" transform="matrix(6.973848,0,0,-6.973848,190.0109,138.46306)"/>
<use data-text="l" xlink:href="#font_1_72" transform="matrix(6.973848,0,0,-6.973848,193.5536,138.46306)"/>
<use data-text="u" xlink:href="#font_1_109" transform="matrix(6.973848,0,0,-6.973848,195.80615,138.46306)"/>
<use data-text="d" xlink:href="#font_1_47" transform="matrix(6.973848,0,0,-6.973848,200.20665,138.46306)"/>
<use data-text="e" xlink:href="#font_1_50" transform="matrix(6.973848,0,0,-6.973848,204.60715,138.46306)"/>
<path transform="matrix(1,0,0,-1,21.9178,142.95587)" d="M182.97042 22.47116H157.19129C156.09082 22.47116 155.19873 21.57909 155.19873 20.4786V15.95961C155.19873 14.85913 156.09082 13.96706 157.19129 13.96706H182.97042C184.07088 13.96706 184.96297 14.85913 184.96297 15.95961V20.4786C184.96297 21.57909 184.07088 22.47116 182.97042 22.47116ZM155.19873 13.96706" fill="#adffad"/>
<path transform="matrix(1,0,0,-1,21.9178,142.95587)" stroke-width=".49814" stroke-linecap="butt" stroke-miterlimit="10" stroke-linejoin="miter" fill="none" stroke="#000000" d="M182.97042 22.47116H157.19129C156.09082 22.47116 155.19873 21.57909 155.19873 20.4786V15.95961C155.19873 14.85913 156.09082 13.96706 157.19129 13.96706H182.97042C184.07088 13.96706 184.96297 14.85913 184.96297 15.95961V20.4786C184.96297 21.57909 184.07088 22.47116 182.97042 22.47116ZM155.19873 13.96706"/>
<use data-text="i" xlink:href="#font_4_66" transform="matrix(4.98132,0,0,-4.98132,183.64238,125.87253)"/>
<use data-text="n" xlink:href="#font_4_77" transform="matrix(4.98132,0,0,-4.98132,185.64986,125.87253)"/>
<use data-text="j" xlink:href="#font_4_68" transform="matrix(4.98132,0,0,-4.98132,189.38584,125.87253)"/>
<use data-text="e" xlink:href="#font_4_50" transform="matrix(4.98132,0,0,-4.98132,191.56766,125.87253)"/>
<use data-text="c" xlink:href="#font_4_43" transform="matrix(4.98132,0,0,-4.98132,194.61125,125.87253)"/>
<use data-text="t" xlink:href="#font_4_105" transform="matrix(4.98132,0,0,-4.98132,197.65483,125.87253)"/>
<path transform="matrix(1,0,0,-1,21.9178,142.95587)" d="M182.97042 36.43822H157.19129C156.09082 36.43822 155.19873 35.54614 155.19873 34.44566V25.95813C155.19873 24.85767 156.09082 23.96558 157.19129 23.96558H182.97042C184.07088 23.96558 184.96297 24.85767 184.96297 25.95813V34.44566C184.96297 35.54614 184.07088 36.43822 182.97042 36.43822ZM155.19873 23.96558" fill="#ffcf9e"/>
<path transform="matrix(1,0,0,-1,21.9178,142.95587)" stroke-width=".49814" stroke-linecap="butt" stroke-miterlimit="10" stroke-linejoin="miter" fill="none" stroke="#000000" d="M182.97042 36.43822H157.19129C156.09082 36.43822 155.19873 35.54614 155.19873 34.44566V25.95813C155.19873 24.85767 156.09082 23.96558 157.19129 23.96558H182.97042C184.07088 23.96558 184.96297 24.85767 184.96297 25.95813V34.44566C184.96297 35.54614 184.07088 36.43822 182.97042 36.43822ZM155.19873 23.96558"/>
<use data-text="2" xlink:href="#font_1_107" transform="matrix(6.973848,0,0,-6.973848,179.81868,115.034458)"/>
<use data-text="r" xlink:href="#font_1_96" transform="matrix(6.973848,0,0,-6.973848,186.47174,115.034458)"/>
<use data-text="e" xlink:href="#font_1_50" transform="matrix(6.973848,0,0,-6.973848,189.58206,115.034458)"/>
<use data-text="c" xlink:href="#font_1_43" transform="matrix(6.973848,0,0,-6.973848,193.12479,115.034458)"/>
<use data-text="u" xlink:href="#font_1_109" transform="matrix(6.973848,0,0,-6.973848,196.6675,115.034458)"/>
<use data-text="r" xlink:href="#font_1_96" transform="matrix(6.973848,0,0,-6.973848,201.068,115.034458)"/>
<path transform="matrix(1,0,0,-1,21.9178,142.95587)" d="M182.97042 46.43675H157.19129C156.09082 46.43675 155.19873 45.54466 155.19873 44.4442V39.92519C155.19873 38.82472 156.09082 37.93263 157.19129 37.93263H182.97042C184.07088 37.93263 184.96297 38.82472 184.96297 39.92519V44.4442C184.96297 45.54466 184.07088 46.43675 182.97042 46.43675ZM155.19873 37.93263" fill="#fff799"/>
<path transform="matrix(1,0,0,-1,21.9178,142.95587)" stroke-width=".49814" stroke-linecap="butt" stroke-miterlimit="10" stroke-linejoin="miter" fill="none" stroke="#000000" d="M182.97042 46.43675H157.19129C156.09082 46.43675 155.19873 45.54466 155.19873 44.4442V39.92519C155.19873 38.82472 156.09082 37.93263 157.19129 37.93263H182.97042C184.07088 37.93263 184.96297 38.82472 184.96297 39.92519V44.4442C184.96297 45.54466 184.07088 46.43675 182.97042 46.43675ZM155.19873 37.93263"/>
<use data-text="h" xlink:href="#font_5_1" transform="matrix(4.98132,0,0,-4.98132,185.58621,103.64432)"/>
<use data-text="(" xlink:href="#font_6_1" transform="matrix(4.98132,0,0,-4.98132,189.70854,101.634098)"/>
<use data-text="t" xlink:href="#font_5_2" transform="matrix(4.98132,0,0,-4.98132,192.4068,101.634098)"/>
<use data-text=")" xlink:href="#font_6_2" transform="matrix(4.98132,0,0,-4.98132,195.2146,101.634098)"/>
<path transform="matrix(1,0,0,-1,21.9178,142.95587)" d="M182.97042 60.40381H157.19129C156.09082 60.40381 155.19873 59.51172 155.19873 58.41125V49.92372C155.19873 48.82324 156.09082 47.93117 157.19129 47.93117H182.97042C184.07088 47.93117 184.96297 48.82324 184.96297 49.92372V58.41125C184.96297 59.51172 184.07088 60.40381 182.97042 60.40381ZM155.19873 47.93117" fill="#dfdfdf"/>
<path transform="matrix(1,0,0,-1,21.9178,142.95587)" stroke-width=".49814" stroke-linecap="butt" stroke-miterlimit="10" stroke-linejoin="miter" fill="none" stroke="#000000" d="M182.97042 60.40381H157.19129C156.09082 60.40381 155.19873 59.51172 155.19873 58.41125V49.92372C155.19873 48.82324 156.09082 47.93117 157.19129 47.93117H182.97042C184.07088 47.93117 184.96297 48.82324 184.96297 49.92372V58.41125C184.96297 59.51172 184.07088 60.40381 182.97042 60.40381ZM155.19873 47.93117"/>
<use data-text="2" xlink:href="#font_1_107" transform="matrix(6.973848,0,0,-6.973848,180.62415,91.17349)"/>
<use data-text="c" xlink:href="#font_1_43" transform="matrix(6.973848,0,0,-6.973848,187.27719,91.17349)"/>
<use data-text="o" xlink:href="#font_1_81" transform="matrix(6.973848,0,0,-6.973848,190.81992,91.17349)"/>
<use data-text="d" xlink:href="#font_1_47" transform="matrix(6.973848,0,0,-6.973848,195.00423,91.17349)"/>
<use data-text="a" xlink:href="#font_1_28" transform="matrix(6.973848,0,0,-6.973848,199.40473,91.17349)"/>
<use data-text="r" xlink:href="#font_2_1" transform="matrix(7.970112,0,0,-7.970112,184.55992,12.44162)"/>
<use data-text="=" xlink:href="#font_3_5" transform="matrix(7.970112,0,0,-7.970112,188.61652,12.44162)"/>
<use data-text="8" xlink:href="#font_3_4" transform="matrix(7.970112,0,0,-7.970112,195.19983,12.44162)"/>
<path transform="matrix(1,0,0,-1,21.9178,142.95587)" stroke-width=".59776" stroke-linecap="butt" stroke-miterlimit="10" stroke-linejoin="miter" fill="none" stroke="#a60000" d="M186.91277 42.1847H193.71616V18.2191H190.01535"/>
<path transform="matrix(-1,-0,0,1,211.93315,124.73677)" d="M2.43735 0C2.13802 .07541 .82231 .50276 0 .96782V-.96782C.82231-.50276 2.13802-.07541 2.43735 0Z" fill="#a60000"/>
<path transform="matrix(-1,-0,0,1,211.93315,124.73677)" stroke-width=".59776" stroke-linecap="butt" stroke-miterlimit="10" stroke-linejoin="miter" fill="none" stroke="#a60000" d="M2.43735 0C2.13802 .07541 .82231 .50276 0 .96782V-.96782C.82231-.50276 2.13802-.07541 2.43735 0Z"/>
<use data-text="&#x00d7;" xlink:href="#font_7_1" transform="matrix(6.973848,0,0,-6.973848,219.72084,114.58601)" fill="#a60000"/>
<use data-text="8" xlink:href="#font_8_3" transform="matrix(6.973848,0,0,-6.973848,225.94753,114.58601)" fill="#a60000"/>
</svg>
